<?xml version="1.0" standalone="no"?>
<!DOCTYPE svg PUBLIC "-//W3C//DTD SVG 20010904//EN"
 "http://www.w3.org/TR/2001/REC-SVG-20010904/DTD/svg10.dtd">
<svg version="1.0" xmlns="http://www.w3.org/2000/svg"
 width="64.000000pt" height="64.000000pt" viewBox="0 0 64.000000 64.000000"
 preserveAspectRatio="xMidYMid meet">

<g transform="translate(0.000000,64.000000) scale(0.100000,-0.100000)"
fill="#000000" stroke="none">
<path d="M0 320 l0 -320 320 0 320 0 0 320 0 320 -320 0 -320 0 0 -320z m343
280 c-72 -8 -149 -43 -217 -100 -47 -39 -66 -48 -66 -32 0 11 44 57 85 87 52
40 101 54 185 53 l75 -1 -62 -7z m155 -40 c39 -24 43 -34 5 -14 -39 20 -103
18 -165 -6 -54 -20 -65 -27 -178 -112 -46 -36 -71 -48 -97 -48 -30 0 -34 3
-31 23 2 14 9 21 20 19 23 -4 53 12 109 59 40 33 112 75 159 92 8 3 44 6 80 6
48 1 73 -4 98 -19z m49 -56 c14 -11 33 -31 42 -44 l15 -25 -27 24 c-18 16 -43
25 -77 29 -62 6 -124 -22 -240 -109 -93 -69 -147 -99 -175 -99 -33 0 -65 28
-65 57 0 25 1 25 18 10 34 -31 76 -17 168 58 61 50 130 92 182 112 48 17 127
11 159 -13z m44 -83 c32 -32 42 -65 12 -39 -59 51 -100 35 -331 -127 -77 -55
-132 -71 -184 -56 -25 8 -43 22 -53 41 -21 41 -19 45 11 21 54 -43 115 -22
265 89 102 76 150 99 207 100 35 0 49 -6 73 -29z m19 -80 c5 -11 10 -28 10
-37 0 -14 -3 -15 -12 -6 -28 28 -74 13 -165 -54 -119 -89 -195 -127 -258 -128
-53 0 -102 22 -123 55 -12 18 -11 18 25 -1 21 -11 51 -20 68 -20 43 0 138 48
231 118 105 77 131 91 176 92 27 0 40 -5 48 -19z m-2 -98 c3 -19 -1 -23 -26
-23 -19 0 -52 -18 -103 -56 -41 -32 -93 -66 -117 -76 -85 -38 -200 -33 -234
10 -12 16 -11 16 6 2 12 -9 40 -15 75 -14 71 0 151 35 240 107 84 68 101 77
131 74 17 -1 26 -9 28 -24z m-64 -114 c-58 -59 -130 -91 -217 -95 l-72 -4 61
14 c76 18 122 41 199 100 69 54 87 44 29 -15z"/>
</g>
</svg>
